<?xml version="1.0" encoding="UTF-8" standalone="no"?> <svg xmlns="http://www.w3.org/2000/svg" viewBox="0 0 512 512">
  <g>
    <g>
      <path d="M463.81,127.42v280q-103.995-32-208,0-103.995-32-208,0v-280h-32v320h480v-320Z" fill="#57a4ff"/>
      <rect x="79.81" y="135.42" width="144" height="64" fill="#57a4ff"/>
      <rect x="359.81" y="303.42" width="72" height="56" fill="#57a4ff"/>
    </g>
    <g>
      <path d="M496,120H472V104a8.011,8.011,0,0,0-5.65-7.65C396.57,74.88,325.81,74.64,256,95.64c-69.81-21-140.57-20.76-210.35.71A8.011,8.011,0,0,0,40,104v16H16a8,8,0,0,0-8,8V448a8,8,0,0,0,8,8H496a8,8,0,0,0,8-8V128A8,8,0,0,0,496,120ZM264,109.96c63.73-18.5,128.27-18.5,192,0V397.33a354.141,354.141,0,0,0-192,.01Zm-208,0c63.73-18.5,128.27-18.5,192,0V397.34a354.013,354.013,0,0,0-192-.01ZM488,440H24V136H40V408a8.012,8.012,0,0,0,10.35,7.65c67.45-20.76,135.85-20.76,203.3,0a8.01,8.01,0,0,0,4.7,0c67.45-20.76,135.85-20.76,203.3,0A8.209,8.209,0,0,0,464,416a8.015,8.015,0,0,0,8-8V136h16Z" fill="#004fac"/>
      <path d="M80,208H224a8,8,0,0,0,8-8V136a8,8,0,0,0-8-8H80a8,8,0,0,0-8,8v64A8,8,0,0,0,80,208Zm8-64H216v48H88Z" fill="#004fac"/>
      <path d="M432,296H360a8,8,0,0,0-8,8v56a8,8,0,0,0,8,8h72a8,8,0,0,0,8-8V304A8,8,0,0,0,432,296Zm-8,56H368V312h56Z" fill="#004fac"/>
      <path d="M80,240H224a8,8,0,0,0,0-16H80a8,8,0,0,0,0,16Z" fill="#004fac"/>
      <path d="M80,264H224a8,8,0,0,0,0-16H80a8,8,0,0,0,0,16Z" fill="#004fac"/>
      <path d="M80,288H224a8,8,0,0,0,0-16H80a8,8,0,0,0,0,16Z" fill="#004fac"/>
      <path d="M80,312h80a8,8,0,0,0,0-16H80a8,8,0,0,0,0,16Z" fill="#004fac"/>
      <path d="M288,152H432a8,8,0,0,0,0-16H288a8,8,0,0,0,0,16Z" fill="#004fac"/>
      <path d="M288,176H432a8,8,0,0,0,0-16H288a8,8,0,0,0,0,16Z" fill="#004fac"/>
      <path d="M288,200H432a8,8,0,0,0,0-16H288a8,8,0,0,0,0,16Z" fill="#004fac"/>
      <path d="M288,256H432a8,8,0,0,0,0-16H288a8,8,0,0,0,0,16Z" fill="#004fac"/>
      <path d="M288,280H432a8,8,0,0,0,0-16H288a8,8,0,0,0,0,16Z" fill="#004fac"/>
      <path d="M288,224h80a8,8,0,0,0,0-16H288a8,8,0,0,0,0,16Z" fill="#004fac"/>
      <path d="M80,336H224a8,8,0,0,0,0-16H80a8,8,0,0,0,0,16Z" fill="#004fac"/>
      <path d="M168,352a8,8,0,0,0-8-8H80a8,8,0,0,0,0,16h80A8,8,0,0,0,168,352Z" fill="#004fac"/>
      <path d="M288,320h48a8,8,0,0,0,0-16H288a8,8,0,0,0,0,16Z" fill="#004fac"/>
      <path d="M288,344h48a8,8,0,0,0,0-16H288a8,8,0,0,0,0,16Z" fill="#004fac"/>
      <path d="M336,352H288a8,8,0,0,0,0,16h48a8,8,0,0,0,0-16Z" fill="#004fac"/>
    </g>
  </g>
</svg>
