<?xml version="1.0" encoding="UTF-8" standalone="no"?> <svg width="512" height="512" viewBox="0 0 512 512" fill="none" xmlns="http://www.w3.org/2000/svg">
<path d="M368 216H336V360H368V216Z" fill="#57A4FF"/>
<path d="M176 224H64V256H176V224Z" fill="#57A4FF"/>
<path d="M136 280H112V304H136V280Z" fill="#57A4FF"/>
<path d="M136 328H112V352H136V328Z" fill="#57A4FF"/>
<path d="M88 280H64V304H88V280Z" fill="#57A4FF"/>
<path d="M88 328H64V352H88V328Z" fill="#57A4FF"/>
<path d="M232 400H120V432H232V400Z" fill="#57A4FF"/>
<path d="M104 176C115.076 176 125.903 172.716 135.112 166.562C144.321 160.409 151.499 151.663 155.737 141.43C159.976 131.198 161.085 119.938 158.924 109.075C156.763 98.212 151.43 88.2338 143.598 80.402C135.766 72.5703 125.788 67.2368 114.925 65.076C104.062 62.9153 92.8024 64.0243 82.5697 68.2628C72.3371 72.5013 63.5911 79.6789 57.4377 88.8881C51.2843 98.0972 48 108.924 48 120C48 134.852 53.9 149.096 64.402 159.598C74.9041 170.1 89.1479 176 104 176V176ZM104 96C108.747 96 113.387 97.4076 117.334 100.045C121.28 102.682 124.357 106.43 126.173 110.816C127.99 115.201 128.465 120.027 127.539 124.682C126.613 129.338 124.327 133.614 120.971 136.971C117.614 140.327 113.338 142.613 108.682 143.539C104.027 144.465 99.201 143.99 94.8156 142.173C90.4302 140.357 86.6819 137.28 84.0447 133.334C81.4076 129.387 80 124.747 80 120C80.0016 113.635 82.5307 107.532 87.0312 103.031C91.5317 98.5307 97.6353 96.0016 104 96V96Z" fill="#57A4FF"/>
<path d="M240 16C224.178 16 208.71 20.6919 195.554 29.4824C182.398 38.2729 172.145 50.7672 166.09 65.3853C160.035 80.0034 158.45 96.0887 161.537 111.607C164.624 127.126 172.243 141.38 183.432 152.569C194.62 163.757 208.874 171.376 224.393 174.463C239.911 177.55 255.997 175.965 270.615 169.91C285.233 163.855 297.727 153.602 306.518 140.446C315.308 127.29 320 111.823 320 96C320 85.4943 317.931 75.0914 313.91 65.3853C309.89 55.6793 303.997 46.8601 296.569 39.4315C289.14 32.0028 280.321 26.11 270.615 22.0896C260.909 18.0693 250.506 16 240 16V16ZM240 144C230.507 144 221.226 141.185 213.333 135.911C205.439 130.636 199.287 123.14 195.654 114.369C192.021 105.598 191.07 95.9468 192.922 86.6357C194.774 77.3246 199.346 68.7718 206.059 62.0589C212.772 55.346 221.325 50.7744 230.636 48.9223C239.947 47.0702 249.598 48.0208 258.369 51.6538C267.14 55.2868 274.636 61.4391 279.911 69.3326C285.185 77.2262 288 86.5065 288 96C288 108.73 282.943 120.939 273.941 129.941C264.939 138.943 252.73 144 240 144V144Z" fill="#57A4FF"/>
<path d="M312 192H40C37.8783 192 35.8434 192.843 34.3431 194.343C32.8429 195.843 32 197.878 32 200V376C32 378.122 32.8429 380.157 34.3431 381.657C35.8434 383.157 37.8783 384 40 384H312C314.122 384 316.157 383.157 317.657 381.657C319.157 380.157 320 378.122 320 376V200C320 197.878 319.157 195.843 317.657 194.343C316.157 192.843 314.122 192 312 192ZM304 368H48V208H304V368Z" fill="#004FAC"/>
<path d="M500.04 137.09C498.834 136.386 497.465 136.009 496.068 135.999C494.671 135.988 493.296 136.344 492.08 137.03L365.9 208H344V196C343.992 188.576 341.039 181.459 335.79 176.21C330.541 170.961 323.424 168.008 316 168H290.54C302.338 159.718 311.921 148.663 318.445 135.809C324.97 122.955 328.236 108.695 327.957 94.2824C327.677 79.87 323.861 65.7469 316.844 53.1551C309.827 40.5632 299.823 29.8884 287.713 22.0692C275.603 14.2501 261.757 9.5261 247.393 8.31275C233.029 7.0994 218.587 9.43383 205.337 15.1108C192.087 20.7877 180.434 29.6332 171.404 40.8695C162.374 52.1058 156.243 65.3886 153.55 79.55C147.962 72.6917 141.011 67.0672 133.138 63.0321C125.265 58.997 116.641 56.6389 107.81 56.1071C98.9788 55.5752 90.1336 56.881 81.8331 59.942C73.5327 63.003 65.9575 67.7526 59.5863 73.8906C53.2151 80.0287 48.1865 87.4216 44.8183 95.6022C41.4501 103.783 39.8155 112.573 40.0179 121.418C40.2203 130.262 42.2553 138.969 45.9942 146.987C49.7331 155.005 55.0947 162.16 61.74 168H36C28.5765 168.008 21.4593 170.961 16.2101 176.21C10.9608 181.459 8.00821 188.576 8 196V380C8.00821 387.424 10.9608 394.541 16.2101 399.79C21.4593 405.039 28.5765 407.992 36 408H112V432C112 434.122 112.843 436.157 114.343 437.657C115.843 439.157 117.878 440 120 440H152V496C152 498.122 152.843 500.157 154.343 501.657C155.843 503.157 157.878 504 160 504H192C194.122 504 196.157 503.157 197.657 501.657C199.157 500.157 200 498.122 200 496V440H232C234.122 440 236.157 439.157 237.657 437.657C239.157 436.157 240 434.122 240 432V408H316C323.424 407.992 330.541 405.039 335.79 399.79C341.039 394.541 343.992 387.424 344 380V368H365.9L492.08 438.97C493.276 439.646 494.626 440.001 496 440C497.051 440.002 498.092 439.796 499.063 439.394C500.035 438.993 500.917 438.404 501.66 437.66C502.404 436.917 502.993 436.035 503.394 435.063C503.796 434.092 504.002 433.051 504 432V144C503.999 142.603 503.633 141.231 502.938 140.019C502.244 138.807 501.245 137.797 500.04 137.09V137.09ZM240 24C254.24 24 268.161 28.2227 280.001 36.1342C291.841 44.0457 301.07 55.2905 306.519 68.4468C311.969 81.6031 313.395 96.0799 310.617 110.047C307.838 124.013 300.981 136.842 290.912 146.912C280.842 156.981 268.013 163.838 254.047 166.617C240.08 169.395 225.603 167.969 212.447 162.519C199.291 157.07 188.046 147.841 180.134 136.001C172.223 124.161 168 110.24 168 96C168.022 76.9112 175.615 58.6104 189.113 45.1126C202.61 31.6147 220.911 24.022 240 24V24ZM164.43 141.04C170.797 151.677 179.324 160.862 189.46 168H146.26C154.529 160.721 160.787 151.437 164.43 141.04ZM56 120C56 110.507 58.8152 101.226 64.0895 93.3326C69.3638 85.4391 76.8603 79.2868 85.6312 75.6538C94.402 72.0208 104.053 71.0702 113.364 72.9223C122.675 74.7744 131.228 79.346 137.941 86.0589C144.654 92.7718 149.226 101.325 151.078 110.636C152.93 119.947 151.979 129.598 148.346 138.369C144.713 147.14 138.561 154.636 130.667 159.911C122.774 165.185 113.494 168 104 168C91.2738 167.986 79.0726 162.925 70.0738 153.926C61.075 144.927 56.0135 132.726 56 120ZM184 488H168V440H184V488ZM224 424H128V408H224V424ZM328 380C327.997 383.182 326.732 386.232 324.482 388.482C322.232 390.732 319.182 391.997 316 392H36C32.8182 391.997 29.7675 390.732 27.5176 388.482C25.2678 386.232 24.0026 383.182 24 380V196C24.0026 192.818 25.2678 189.768 27.5176 187.518C29.7675 185.268 32.8182 184.003 36 184H316C319.182 184.003 322.232 185.268 324.482 187.518C326.732 189.768 327.997 192.818 328 196V380ZM360 352H344V224H360V352ZM488 418.32L376 355.32V220.68L488 157.68V418.32Z" fill="#004FAC"/>
<path d="M64 264H176C178.122 264 180.157 263.157 181.657 261.657C183.157 260.157 184 258.122 184 256V224C184 221.878 183.157 219.843 181.657 218.343C180.157 216.843 178.122 216 176 216H64C61.8783 216 59.8434 216.843 58.3431 218.343C56.8429 219.843 56 221.878 56 224V256C56 258.122 56.8429 260.157 58.3431 261.657C59.8434 263.157 61.8783 264 64 264ZM72 232H168V248H72V232Z" fill="#004FAC"/>
<path d="M136 272H112C109.878 272 107.843 272.843 106.343 274.343C104.843 275.843 104 277.878 104 280V304C104 306.122 104.843 308.157 106.343 309.657C107.843 311.157 109.878 312 112 312H136C138.122 312 140.157 311.157 141.657 309.657C143.157 308.157 144 306.122 144 304V280C144 277.878 143.157 275.843 141.657 274.343C140.157 272.843 138.122 272 136 272ZM128 296H120V288H128V296Z" fill="#004FAC"/>
<path d="M136 320H112C109.878 320 107.843 320.843 106.343 322.343C104.843 323.843 104 325.878 104 328V352C104 354.122 104.843 356.157 106.343 357.657C107.843 359.157 109.878 360 112 360H136C138.122 360 140.157 359.157 141.657 357.657C143.157 356.157 144 354.122 144 352V328C144 325.878 143.157 323.843 141.657 322.343C140.157 320.843 138.122 320 136 320ZM128 344H120V336H128V344Z" fill="#004FAC"/>
<path d="M64 312H88C90.1217 312 92.1566 311.157 93.6569 309.657C95.1571 308.157 96 306.122 96 304V280C96 277.878 95.1571 275.843 93.6569 274.343C92.1566 272.843 90.1217 272 88 272H64C61.8783 272 59.8434 272.843 58.3431 274.343C56.8429 275.843 56 277.878 56 280V304C56 306.122 56.8429 308.157 58.3431 309.657C59.8434 311.157 61.8783 312 64 312ZM72 288H80V296H72V288Z" fill="#004FAC"/>
<path d="M64 360H88C90.1217 360 92.1566 359.157 93.6569 357.657C95.1571 356.157 96 354.122 96 352V328C96 325.878 95.1571 323.843 93.6569 322.343C92.1566 320.843 90.1217 320 88 320H64C61.8783 320 59.8434 320.843 58.3431 322.343C56.8429 323.843 56 325.878 56 328V352C56 354.122 56.8429 356.157 58.3431 357.657C59.8434 359.157 61.8783 360 64 360ZM72 336H80V344H72V336Z" fill="#004FAC"/>
<path d="M200 232H288C290.122 232 292.157 231.157 293.657 229.657C295.157 228.157 296 226.122 296 224C296 221.878 295.157 219.843 293.657 218.343C292.157 216.843 290.122 216 288 216H200C197.878 216 195.843 216.843 194.343 218.343C192.843 219.843 192 221.878 192 224C192 226.122 192.843 228.157 194.343 229.657C195.843 231.157 197.878 232 200 232Z" fill="#004FAC"/>
<path d="M200 264H224C226.122 264 228.157 263.157 229.657 261.657C231.157 260.157 232 258.122 232 256C232 253.878 231.157 251.843 229.657 250.343C228.157 248.843 226.122 248 224 248H200C197.878 248 195.843 248.843 194.343 250.343C192.843 251.843 192 253.878 192 256C192 258.122 192.843 260.157 194.343 261.657C195.843 263.157 197.878 264 200 264Z" fill="#004FAC"/>
<path d="M104 88C97.671 88 91.4841 89.8768 86.2218 93.393C80.9594 96.9092 76.8579 101.907 74.4359 107.754C72.0139 113.601 71.3802 120.035 72.6149 126.243C73.8496 132.45 76.8973 138.152 81.3726 142.627C85.8479 147.103 91.5497 150.15 97.7571 151.385C103.965 152.62 110.399 151.986 116.246 149.564C122.093 147.142 127.091 143.041 130.607 137.778C134.123 132.516 136 126.329 136 120C135.99 111.516 132.616 103.382 126.617 97.3831C120.618 91.384 112.484 88.0095 104 88V88ZM104 136C100.836 136 97.7421 135.062 95.1109 133.304C92.4797 131.545 90.4289 129.047 89.2179 126.123C88.0069 123.199 87.6901 119.982 88.3075 116.879C88.9248 113.775 90.4487 110.924 92.6863 108.686C94.924 106.449 97.7749 104.925 100.879 104.307C103.982 103.69 107.199 104.007 110.123 105.218C113.047 106.429 115.545 108.48 117.304 111.111C119.062 113.742 120 116.835 120 120C119.995 124.242 118.308 128.309 115.308 131.308C112.309 134.308 108.242 135.995 104 136Z" fill="#004FAC"/>
<path d="M240 152C251.076 152 261.903 148.716 271.112 142.562C280.321 136.409 287.499 127.663 291.737 117.43C295.976 107.198 297.085 95.9379 294.924 85.075C292.763 74.212 287.43 64.2338 279.598 56.402C271.766 48.5703 261.788 43.2368 250.925 41.076C240.062 38.9153 228.802 40.0243 218.57 44.2628C208.337 48.5013 199.591 55.6789 193.438 64.8881C187.284 74.0972 184 84.9243 184 96C184.017 110.847 189.922 125.081 200.42 135.58C210.919 146.078 225.153 151.983 240 152V152ZM240 56C247.911 56 255.645 58.346 262.223 62.7412C268.801 67.1365 273.928 73.3836 276.955 80.6927C279.983 88.0017 280.775 96.0444 279.231 103.804C277.688 111.563 273.878 118.69 268.284 124.284C262.69 129.878 255.563 133.688 247.804 135.231C240.044 136.775 232.002 135.983 224.693 132.955C217.384 129.928 211.136 124.801 206.741 118.223C202.346 111.645 200 103.911 200 96C200.012 85.395 204.23 75.2278 211.729 67.7289C219.228 60.23 229.395 56.0119 240 56V56Z" fill="#004FAC"/>
</svg>
