<?xml version="1.0" encoding="UTF-8" standalone="no"?> <svg width="512" height="512" viewBox="0 0 512 512" fill="none" xmlns="http://www.w3.org/2000/svg">
<path d="M256 168C235.431 168 215.323 174.099 198.221 185.527C181.118 196.955 167.788 213.197 159.917 232.201C152.045 251.204 149.986 272.115 153.998 292.289C158.011 312.463 167.916 330.994 182.461 345.539C197.006 360.084 215.537 369.989 235.711 374.002C255.885 378.015 276.796 375.955 295.799 368.083C314.803 360.212 331.045 346.882 342.473 329.779C353.901 312.677 360 292.569 360 272C360 244.417 349.043 217.965 329.539 198.461C310.035 178.957 283.583 168 256 168V168ZM256 312C248.089 312 240.355 309.654 233.777 305.259C227.199 300.864 222.072 294.616 219.045 287.307C216.017 279.998 215.225 271.956 216.769 264.196C218.312 256.437 222.122 249.31 227.716 243.716C233.31 238.122 240.437 234.312 248.196 232.769C255.956 231.225 263.998 232.017 271.307 235.045C278.616 238.072 284.864 243.199 289.259 249.777C293.654 256.355 296 264.089 296 272C296 282.609 291.786 292.783 284.284 300.284C276.783 307.786 266.609 312 256 312Z" fill="#57A4FF"/>
<path d="M472 112H40C33.6353 112.002 27.5317 114.531 23.0312 119.031C18.5307 123.532 16.0016 129.635 16 136V408C16.0016 414.365 18.5307 420.468 23.0312 424.969C27.5317 429.469 33.6353 431.998 40 432H472C478.365 431.998 484.468 429.469 488.969 424.969C493.469 420.468 495.998 414.365 496 408V136C495.998 129.635 493.469 123.532 488.969 119.031C484.468 114.531 478.365 112.002 472 112V112ZM68 192C62.4621 192 57.0486 190.358 52.444 187.281C47.8395 184.204 44.2506 179.831 42.1314 174.715C40.0121 169.599 39.4576 163.969 40.538 158.537C41.6184 153.106 44.2851 148.117 48.201 144.201C52.1169 140.285 57.106 137.618 62.5375 136.538C67.9689 135.458 73.5988 136.012 78.7151 138.131C83.8315 140.251 88.2045 143.839 91.2812 148.444C94.3578 153.049 96 158.462 96 164C95.9987 171.426 93.0483 178.547 87.7975 183.798C82.5468 189.048 75.4257 191.999 68 192V192ZM256 408C229.102 408 202.808 400.024 180.442 385.08C158.077 370.136 140.646 348.896 130.352 324.045C120.059 299.194 117.366 271.849 122.613 245.468C127.861 219.086 140.814 194.853 159.833 175.833C178.853 156.814 203.086 143.861 229.468 138.613C255.849 133.366 283.194 136.059 308.045 146.352C332.896 156.646 354.136 174.077 369.08 196.442C384.024 218.808 392 245.102 392 272C392 308.069 377.671 342.662 352.167 368.167C326.662 393.671 292.069 408 256 408ZM464 176H392V144H464V176Z" fill="#57A4FF"/>
<path d="M256 168C235.431 168 215.323 174.099 198.221 185.527C181.118 196.955 167.788 213.197 159.917 232.201C152.045 251.204 149.986 272.115 153.998 292.289C158.011 312.463 167.916 330.994 182.461 345.539C197.006 360.084 215.537 369.989 235.711 374.002C255.885 378.015 276.796 375.955 295.799 368.083C314.803 360.212 331.045 346.882 342.473 329.779C353.901 312.677 360 292.569 360 272C360 244.417 349.043 217.965 329.539 198.461C310.035 178.957 283.583 168 256 168V168ZM256 312C248.089 312 240.355 309.654 233.777 305.259C227.199 300.864 222.072 294.616 219.045 287.307C216.017 279.998 215.225 271.956 216.769 264.196C218.312 256.437 222.122 249.31 227.716 243.716C233.31 238.122 240.437 234.312 248.196 232.769C255.956 231.225 263.998 232.017 271.307 235.045C278.616 238.072 284.864 243.199 289.259 249.777C293.654 256.355 296 264.089 296 272C296 282.609 291.786 292.783 284.284 300.284C276.783 307.786 266.609 312 256 312Z" fill="#57A4FF"/>
<path d="M256 168C235.431 168 215.323 174.099 198.221 185.527C181.118 196.955 167.788 213.197 159.917 232.201C152.045 251.204 149.986 272.115 153.998 292.289C158.011 312.463 167.916 330.994 182.461 345.539C197.006 360.084 215.537 369.989 235.711 374.002C255.885 378.015 276.796 375.955 295.799 368.083C314.803 360.212 331.045 346.882 342.473 329.779C353.901 312.677 360 292.569 360 272C360 244.417 349.043 217.965 329.539 198.461C310.035 178.957 283.583 168 256 168V168ZM256 312C248.089 312 240.355 309.654 233.777 305.259C227.199 300.864 222.072 294.616 219.045 287.307C216.017 279.998 215.225 271.956 216.769 264.196C218.312 256.437 222.122 249.31 227.716 243.716C233.31 238.122 240.437 234.312 248.196 232.769C255.956 231.225 263.998 232.017 271.307 235.045C278.616 238.072 284.864 243.199 289.259 249.777C293.654 256.355 296 264.089 296 272C296 282.609 291.786 292.783 284.284 300.284C276.783 307.786 266.609 312 256 312Z" fill="#57A4FF"/>
<path d="M472 104H136V88C136 85.8783 135.157 83.8434 133.657 82.3431C132.157 80.8429 130.122 80 128 80H64C61.8783 80 59.8434 80.8429 58.3431 82.3431C56.8429 83.8434 56 85.8783 56 88V104H40C31.516 104.01 23.3822 107.384 17.3831 113.383C11.384 119.382 8.00953 127.516 8 136V408C8.00953 416.484 11.384 424.618 17.3831 430.617C23.3822 436.616 31.516 439.99 40 440H472C480.484 439.99 488.618 436.616 494.617 430.617C500.616 424.618 503.99 416.484 504 408V136C503.99 127.516 500.616 119.382 494.617 113.383C488.618 107.384 480.484 104.01 472 104V104ZM72 96H120V104H72V96ZM488 408C487.994 412.242 486.307 416.308 483.308 419.308C480.308 422.307 476.242 423.994 472 424H40C35.7582 423.994 31.6918 422.307 28.6924 419.308C25.6931 416.308 24.0056 412.242 24 408V136C24.0056 131.758 25.6931 127.692 28.6924 124.692C31.6918 121.693 35.7582 120.006 40 120H472C476.242 120.006 480.308 121.693 483.308 124.692C486.307 127.692 487.994 131.758 488 136V408Z" fill="#004FAC"/>
<path d="M256 128C176.6 128 112 192.6 112 272C112 351.4 176.6 416 256 416C335.4 416 400 351.4 400 272C400 192.6 335.4 128 256 128ZM256 400C230.684 400 205.937 392.493 184.887 378.428C163.838 364.363 147.431 344.372 137.743 320.983C128.055 297.595 125.521 271.858 130.459 247.028C135.398 222.199 147.589 199.391 165.49 181.49C183.391 163.589 206.199 151.398 231.028 146.459C255.858 141.521 281.595 144.055 304.983 153.743C328.372 163.431 348.363 179.838 362.428 200.887C376.493 221.937 384 246.684 384 272C383.962 305.936 370.464 338.471 346.467 362.467C322.471 386.464 289.936 399.962 256 400V400Z" fill="#004FAC"/>
<path d="M256 160C233.849 160 212.194 166.569 193.776 178.875C175.358 191.182 161.003 208.674 152.526 229.139C144.049 249.605 141.831 272.124 146.152 293.85C150.474 315.576 161.141 335.532 176.804 351.196C192.468 366.859 212.424 377.526 234.15 381.848C255.876 386.17 278.395 383.952 298.861 375.475C319.326 366.998 336.818 352.642 349.125 334.224C361.431 315.806 368 294.152 368 272C367.966 242.306 356.156 213.838 335.159 192.841C314.162 171.844 285.694 160.034 256 160V160ZM256 368C237.013 368 218.452 362.37 202.665 351.821C186.878 341.272 174.574 326.279 167.308 308.738C160.042 291.196 158.14 271.894 161.845 253.271C165.549 234.649 174.692 217.544 188.118 204.118C201.544 190.692 218.649 181.549 237.271 177.845C255.894 174.14 275.196 176.042 292.738 183.308C310.279 190.574 325.273 202.878 335.821 218.665C346.37 234.452 352 253.013 352 272C351.971 297.452 341.848 321.853 323.851 339.851C305.853 357.848 281.452 367.971 256 368V368Z" fill="#004FAC"/>
<path d="M256 224C246.507 224 237.226 226.815 229.333 232.089C221.439 237.364 215.287 244.86 211.654 253.631C208.021 262.402 207.07 272.053 208.922 281.364C210.774 290.675 215.346 299.228 222.059 305.941C228.772 312.654 237.325 317.226 246.636 319.078C255.947 320.93 265.598 319.979 274.369 316.346C283.14 312.713 290.636 306.561 295.911 298.667C301.185 290.774 304 281.494 304 272C303.986 259.274 298.924 247.073 289.925 238.075C280.927 229.076 268.726 224.014 256 224ZM256 304C249.671 304 243.484 302.123 238.222 298.607C232.959 295.091 228.858 290.093 226.436 284.246C224.014 278.399 223.38 271.965 224.615 265.757C225.85 259.55 228.897 253.848 233.373 249.373C237.848 244.897 243.55 241.85 249.757 240.615C255.965 239.38 262.399 240.014 268.246 242.436C274.093 244.858 279.091 248.959 282.607 254.222C286.123 259.484 288 265.671 288 272C287.99 280.484 284.616 288.618 278.617 294.617C272.618 300.616 264.484 303.99 256 304Z" fill="#004FAC"/>
<path d="M464 136H392C389.878 136 387.843 136.843 386.343 138.343C384.843 139.843 384 141.878 384 144V176C384 178.122 384.843 180.157 386.343 181.657C387.843 183.157 389.878 184 392 184H464C466.122 184 468.157 183.157 469.657 181.657C471.157 180.157 472 178.122 472 176V144C472 141.878 471.157 139.843 469.657 138.343C468.157 136.843 466.122 136 464 136ZM456 168H400V152H456V168Z" fill="#004FAC"/>
<path d="M464 400H400C397.878 400 395.843 400.843 394.343 402.343C392.843 403.843 392 405.878 392 408C392 410.122 392.843 412.157 394.343 413.657C395.843 415.157 397.878 416 400 416H464C466.122 416 468.157 415.157 469.657 413.657C471.157 412.157 472 410.122 472 408C472 405.878 471.157 403.843 469.657 402.343C468.157 400.843 466.122 400 464 400Z" fill="#004FAC"/>
<path d="M464 376H432C429.878 376 427.843 376.843 426.343 378.343C424.843 379.843 424 381.878 424 384C424 386.122 424.843 388.157 426.343 389.657C427.843 391.157 429.878 392 432 392H464C466.122 392 468.157 391.157 469.657 389.657C471.157 388.157 472 386.122 472 384C472 381.878 471.157 379.843 469.657 378.343C468.157 376.843 466.122 376 464 376Z" fill="#004FAC"/>
<path d="M68 128C60.8799 128 53.9197 130.111 47.9995 134.067C42.0793 138.023 37.4651 143.645 34.7404 150.223C32.0156 156.802 31.3027 164.04 32.6917 171.023C34.0808 178.007 37.5095 184.421 42.5442 189.456C47.5789 194.491 53.9934 197.919 60.9768 199.308C67.9601 200.697 75.1985 199.984 81.7766 197.26C88.3548 194.535 93.9772 189.921 97.9329 184.001C101.889 178.08 104 171.12 104 164C103.989 154.455 100.193 145.305 93.4442 138.556C86.6952 131.807 77.5446 128.011 68 128V128ZM68 184C64.0444 184 60.1776 182.827 56.8886 180.629C53.5996 178.432 51.0362 175.308 49.5224 171.654C48.0087 167.999 47.6126 163.978 48.3843 160.098C49.156 156.219 51.0608 152.655 53.8579 149.858C56.6549 147.061 60.2186 145.156 64.0982 144.384C67.9778 143.613 71.9992 144.009 75.6537 145.522C79.3082 147.036 82.4318 149.6 84.6294 152.889C86.827 156.178 88 160.044 88 164C87.9939 169.302 85.8848 174.386 82.1354 178.135C78.386 181.885 73.3025 183.994 68 184V184Z" fill="#004FAC"/>
</svg>
