<?xml version="1.0" encoding="UTF-8" standalone="no"?> <svg width="512" height="512" viewBox="0 0 512 512" fill="none" xmlns="http://www.w3.org/2000/svg">
<path d="M328 344V216H184V296H40V472H184H328H472V344H328Z" fill="#57A4FF"/>
<path d="M496 464H480V344C480 341.878 479.157 339.843 477.657 338.343C476.157 336.843 474.122 336 472 336H336V216C336 213.878 335.157 211.843 333.657 210.343C332.157 208.843 330.122 208 328 208H184C181.878 208 179.843 208.843 178.343 210.343C176.843 211.843 176 213.878 176 216V288H40C37.8783 288 35.8434 288.843 34.3431 290.343C32.8429 291.843 32 293.878 32 296V464H16C13.8783 464 11.8434 464.843 10.3431 466.343C8.84285 467.843 8 469.878 8 472V496C8 498.122 8.84285 500.157 10.3431 501.657C11.8434 503.157 13.8783 504 16 504H496C498.122 504 500.157 503.157 501.657 501.657C503.157 500.157 504 498.122 504 496V472C504 469.878 503.157 467.843 501.657 466.343C500.157 464.843 498.122 464 496 464ZM336 352H464V464H336V352ZM192 224H320V464H192V224ZM48 304H176V464H48V304ZM488 488H24V480H488V488Z" fill="#004FAC"/>
<path d="M175.061 184.08H179.661C188.941 184.123 197.925 180.821 204.968 174.779C212.011 168.736 216.641 160.358 218.009 151.18C218.025 151.08 218.038 150.986 218.049 150.889L219.472 138.675C221.294 127.151 229.151 120 240 120H273C283.849 120 291.706 127.151 293.532 138.676L294.955 150.89C294.966 150.99 294.979 151.084 294.995 151.181C296.363 160.359 300.993 168.737 308.036 174.78C315.079 180.822 324.063 184.124 333.343 184.081H336.943C342.537 184.081 348.065 182.871 353.148 180.535C358.231 178.199 362.749 174.791 366.391 170.545C370.034 166.299 372.715 161.316 374.251 155.937C375.788 150.558 376.143 144.91 375.292 139.381L360.125 40.82C358.757 31.6415 354.127 23.2636 347.084 17.2212C340.04 11.1788 331.056 7.87672 321.776 7.91998H190.224C180.944 7.87672 171.96 11.1788 164.916 17.2212C157.873 23.2636 153.243 31.6415 151.875 40.82L136.712 139.38C135.861 144.909 136.216 150.557 137.753 155.936C139.289 161.315 141.97 166.298 145.613 170.544C149.255 174.79 153.773 178.198 158.856 180.534C163.939 182.87 169.467 184.08 175.061 184.08V184.08ZM152.526 141.813L167.689 43.254C168.493 37.8604 171.214 32.9371 175.352 29.3862C179.491 25.8354 184.771 23.8948 190.224 23.92H321.776C327.229 23.8948 332.509 25.8354 336.648 29.3862C340.786 32.9371 343.507 37.8604 344.311 43.254L359.474 141.813C359.974 145.062 359.765 148.381 358.862 151.542C357.96 154.703 356.384 157.631 354.244 160.126C352.103 162.621 349.448 164.623 346.462 165.996C343.475 167.369 340.226 168.08 336.939 168.08H333.339C327.909 168.106 322.651 166.182 318.519 162.658C314.388 159.135 311.658 154.246 310.826 148.88L309.402 136.668C309.391 136.568 309.378 136.474 309.363 136.377C306.387 117.012 291.772 104 273 104H240C221.228 104 206.613 117.012 203.633 136.379C203.618 136.479 203.605 136.572 203.594 136.67L202.17 148.882C201.338 154.248 198.608 159.137 194.477 162.66C190.345 166.184 185.087 168.108 179.657 168.082H175.057C171.77 168.082 168.521 167.371 165.534 165.998C162.548 164.625 159.893 162.623 157.752 160.128C155.612 157.633 154.036 154.705 153.134 151.544C152.231 148.383 152.022 145.064 152.522 141.815L152.526 141.813Z" fill="#004FAC"/>
<path d="M184 72H192V80C192 82.1217 192.843 84.1566 194.343 85.6569C195.843 87.1571 197.878 88 200 88C202.122 88 204.157 87.1571 205.657 85.6569C207.157 84.1566 208 82.1217 208 80V72H216C218.122 72 220.157 71.1571 221.657 69.6569C223.157 68.1566 224 66.1217 224 64C224 61.8783 223.157 59.8434 221.657 58.3431C220.157 56.8429 218.122 56 216 56H208V48C208 45.8783 207.157 43.8434 205.657 42.3431C204.157 40.8429 202.122 40 200 40C197.878 40 195.843 40.8429 194.343 42.3431C192.843 43.8434 192 45.8783 192 48V56H184C181.878 56 179.843 56.8429 178.343 58.3431C176.843 59.8434 176 61.8783 176 64C176 66.1217 176.843 68.1566 178.343 69.6569C179.843 71.1571 181.878 72 184 72Z" fill="#004FAC"/>
<path d="M312 56C316.418 56 320 52.4183 320 48C320 43.5817 316.418 40 312 40C307.582 40 304 43.5817 304 48C304 52.4183 307.582 56 312 56Z" fill="#004FAC"/>
<path d="M312 88C316.418 88 320 84.4183 320 80C320 75.5817 316.418 72 312 72C307.582 72 304 75.5817 304 80C304 84.4183 307.582 88 312 88Z" fill="#004FAC"/>
<path d="M328 72C332.418 72 336 68.4183 336 64C336 59.5817 332.418 56 328 56C323.582 56 320 59.5817 320 64C320 68.4183 323.582 72 328 72Z" fill="#004FAC"/>
<path d="M296 72C300.418 72 304 68.4183 304 64C304 59.5817 300.418 56 296 56C291.582 56 288 59.5817 288 64C288 68.4183 291.582 72 296 72Z" fill="#004FAC"/>
<path d="M243.578 263.155L248 260.944V312C248 314.122 248.843 316.157 250.343 317.657C251.843 319.157 253.878 320 256 320C258.122 320 260.157 319.157 261.657 317.657C263.157 316.157 264 314.122 264 312V248C264 246.636 263.651 245.295 262.987 244.104C262.323 242.913 261.366 241.912 260.206 241.195C259.046 240.478 257.722 240.07 256.359 240.008C254.997 239.947 253.642 240.235 252.422 240.845L236.422 248.845C234.541 249.804 233.116 251.467 232.456 253.472C231.797 255.478 231.956 257.662 232.901 259.55C233.845 261.438 235.497 262.877 237.497 263.552C239.497 264.227 241.683 264.084 243.578 263.155Z" fill="#004FAC"/>
<path d="M128 320H96C93.8783 320 91.8434 320.843 90.3431 322.343C88.8429 323.843 88 325.878 88 328C88 330.122 88.8429 332.157 90.3431 333.657C91.8434 335.157 93.8783 336 96 336H120V341.578L89.344 387.562C88.5407 388.767 88.0795 390.167 88.0095 391.613C87.9395 393.06 88.2634 394.498 88.9466 395.775C89.6298 397.051 90.6467 398.119 91.8889 398.863C93.1311 399.607 94.552 400 96 400H128C130.122 400 132.157 399.157 133.657 397.657C135.157 396.157 136 394.122 136 392C136 389.878 135.157 387.843 133.657 386.343C132.157 384.843 130.122 384 128 384H110.948L134.656 348.438C135.532 347.124 136 345.58 136 344V328C136 325.878 135.157 323.843 133.657 322.343C132.157 320.843 130.122 320 128 320Z" fill="#004FAC"/>
<path d="M384 432C381.878 432 379.843 432.843 378.343 434.343C376.843 435.843 376 437.878 376 440C376 442.122 376.843 444.157 378.343 445.657C379.843 447.157 381.878 448 384 448H416C418.122 448 420.157 447.157 421.657 445.657C423.157 444.157 424 442.122 424 440V376C424 373.878 423.157 371.843 421.657 370.343C420.157 368.843 418.122 368 416 368H384C381.878 368 379.843 368.843 378.343 370.343C376.843 371.843 376 373.878 376 376C376 378.122 376.843 380.157 378.343 381.657C379.843 383.157 381.878 384 384 384H408V400H400C397.878 400 395.843 400.843 394.343 402.343C392.843 403.843 392 405.878 392 408C392 410.122 392.843 412.157 394.343 413.657C395.843 415.157 397.878 416 400 416H408V432H384Z" fill="#004FAC"/>
</svg>
