<?xml version="1.0" encoding="UTF-8" standalone="no"?> <svg xmlns="http://www.w3.org/2000/svg" width="512" height="512" viewBox="0 0 512 512">    <g>    <g>      <circle cx="256" cy="368" r="24" fill="#57a4ff"/>      <path d="M368,432V300a19.994,19.994,0,0,0-20-20H164a19.994,19.994,0,0,0-20,20V432H88l1.87-8.11c.7.07,1.41.11,2.13.11h8a19.994,19.994,0,0,0,20-20V380a19.972,19.972,0,0,0-15.51-19.48v-.01l24.35-105.5A40.006,40.006,0,0,1,167.82,224H216a26.148,26.148,0,0,0,1.26,8c4.44,13.8,20.1,24,38.74,24s34.3-10.2,38.74-24a26.148,26.148,0,0,0,1.26-8h48.18a40.006,40.006,0,0,1,38.98,31.01l27.92,121.02A19.982,19.982,0,0,0,392,396v8a19.994,19.994,0,0,0,20,20h10.15l1.85,8Z" fill="#57a4ff"/>      <rect x="32" y="464" width="448" height="24" fill="#57a4ff"/>      <circle cx="256" cy="368" r="24" fill="#57a4ff"/>      <circle cx="256" cy="368" r="24" fill="#57a4ff"/>      <path d="M336,116v20H312V124c0-1.33-.05-2.64-.15-3.94C271.82,136,200,136,200,136H176V116a76.082,76.082,0,0,1,76-76h8A76.082,76.082,0,0,1,336,116Z" fill="#57a4ff"/>      <path d="M217.26,232H216v-8A26.148,26.148,0,0,0,217.26,232Z" fill="#57a4ff"/>      <path d="M294.74,232a26.148,26.148,0,0,0,1.26-8v8Z" fill="#57a4ff"/>      <line x1="56" y1="312" x2="80" y2="360" fill="none"/>      <path d="M156,136h28a0,0,0,0,1,0,0v64a0,0,0,0,1,0,0H156a20,20,0,0,1-20-20V156A20,20,0,0,1,156,136Z" fill="#57a4ff"/>      <path d="M328,136h28a20,20,0,0,1,20,20v24a20,20,0,0,1-20,20H328a0,0,0,0,1,0,0V136A0,0,0,0,1,328,136Z" fill="#57a4ff"/>      <circle cx="72" cy="168" r="16" fill="#57a4ff"/>    </g>    <g>      <path d="M496,432H436a28.031,28.031,0,0,0,28-28v-8a28.031,28.031,0,0,0-28-28H416.55L394.77,267.74A48.223,48.223,0,0,0,346.96,224H304a8.074,8.074,0,0,0-.49-2.75A59.754,59.754,0,0,0,320,180v20a8,8,0,0,0,8,8h28a28.031,28.031,0,0,0,28-28V156a28.026,28.026,0,0,0-16-25.29V116A108.124,108.124,0,0,0,260,8h-8A108.124,108.124,0,0,0,144,116v14.71A28.026,28.026,0,0,0,128,156v24a28.031,28.031,0,0,0,28,28h28a8,8,0,0,0,8-8V180a59.754,59.754,0,0,0,16.49,41.25A8.074,8.074,0,0,0,208,224H165.04a48.223,48.223,0,0,0-47.81,43.74L98.93,352H92a27.525,27.525,0,0,0-6.65.81L63.16,308.42a8.005,8.005,0,1,0-14.32,7.16l22.68,45.35A27.918,27.918,0,0,0,64,380v24a28.031,28.031,0,0,0,28,28H16a8,8,0,0,0-8,8v32a8,8,0,0,0,8,8h8v16a8,8,0,0,0,8,8H480a8,8,0,0,0,8-8V480h8a8,8,0,0,0,8-8V440A8,8,0,0,0,496,432Zm-84-48h24a12.01,12.01,0,0,1,12,12v8a12.01,12.01,0,0,1-12,12H412a12.01,12.01,0,0,1-12-12v-8A12.01,12.01,0,0,1,412,384ZM368,156v24a12.01,12.01,0,0,1-12,12H336V144h20A12.01,12.01,0,0,1,368,156ZM176,192H156a12.01,12.01,0,0,1-12-12V156a12.01,12.01,0,0,1,12-12h20Zm-8-76v12h-8V116a92.1,92.1,0,0,1,92-92h8a92.1,92.1,0,0,1,92,92v12h-8V116a84.092,84.092,0,0,0-84-84h-8A84.092,84.092,0,0,0,168,116Zm24,20a8,8,0,0,0-8-8V116a68.071,68.071,0,0,1,68-68h8a68.071,68.071,0,0,1,68,68v12a8,8,0,0,0-8,8V124c0-1.53-.06-3.06-.17-4.56a8,8,0,0,0-10.94-6.81C270.77,127.81,200.7,128,200,128A8,8,0,0,0,192,136Zm16,44V143.88c18.1-.45,62.86-2.58,96-12.63V180a44.052,44.052,0,0,1-44,44h-8A44.052,44.052,0,0,1,208,180Zm79.96,53.06C287.22,245.8,273.17,256,256,256s-31.22-10.2-31.96-22.94A59.615,59.615,0,0,0,252,240h8A59.615,59.615,0,0,0,287.96,233.06ZM132.98,270.63a7.954,7.954,0,0,0,.16-1.09A32.138,32.138,0,0,1,165.04,240h43.93c4.46,18.24,23.85,32,47.03,32s42.57-13.76,47.03-32h43.93a32.138,32.138,0,0,1,31.9,29.54,7.954,7.954,0,0,0,.16,1.09l21.68,99.76A28.035,28.035,0,0,0,384,396v8a28.031,28.031,0,0,0,28,28H376V308a28.031,28.031,0,0,0-28-28H164a28.031,28.031,0,0,0-28,28V432H100a28.031,28.031,0,0,0,28-28V380a27.987,27.987,0,0,0-13.57-23.98ZM360,308V432H152V308a12.01,12.01,0,0,1,12-12H348A12.01,12.01,0,0,1,360,308ZM80,404V380a12.01,12.01,0,0,1,12-12h8a12.01,12.01,0,0,1,12,12v24a12.01,12.01,0,0,1-12,12H92A12.01,12.01,0,0,1,80,404Zm392,84H40v-8H472Zm16-24H24V448H488Z" fill="#004fac"/>      <path d="M256,344a32,32,0,1,0,32,32A32.036,32.036,0,0,0,256,344Zm0,48a16,16,0,1,1,16-16A16.019,16.019,0,0,1,256,392Z" fill="#004fac"/>      <circle cx="232" cy="160" r="8" fill="#004fac"/>      <circle cx="280" cy="160" r="8" fill="#004fac"/>      <path d="M248,208h16a8,8,0,0,0,0-16H248a8,8,0,0,0,0,16Z" fill="#004fac"/>      <path d="M72,192a24.028,24.028,0,0,0,24-24V91.1l13.47,4.489a8,8,0,1,0,5.06-15.178l-24-8A8,8,0,0,0,80,80v65.376A24,24,0,1,0,72,192Zm0-32a8,8,0,1,1-8,8A8.009,8.009,0,0,1,72,160Z" fill="#004fac"/>      <path d="M440,296a24.028,24.028,0,0,0,24-24V195.1l13.47,4.49a8,8,0,0,0,5.06-15.18l-24-8A8,8,0,0,0,448,184v65.376A24,24,0,1,0,440,296Zm0-32a8,8,0,1,1-8,8A8.009,8.009,0,0,1,440,264Z" fill="#004fac"/>    </g>  </g></svg>