<?xml version="1.0" encoding="UTF-8" standalone="no"?> <svg width="512" height="512" viewBox="0 0 512 512" fill="none" xmlns="http://www.w3.org/2000/svg">
<path d="M104 192H72V400H104V192Z" fill="#57A4FF"/>
<path d="M136 48H112V128H136V48Z" fill="#57A4FF"/>
<path d="M224 48H200V128H224V48Z" fill="#57A4FF"/>
<path d="M80 464H48V496H80V464Z" fill="#57A4FF"/>
<path d="M476 240H424V336H392V240H232V336H200V240H184V192H152V240H148C145.373 239.999 142.772 240.516 140.345 241.521C137.919 242.526 135.713 243.999 133.856 245.856C131.999 247.713 130.526 249.919 129.521 252.345C128.516 254.772 127.999 257.373 128 260V476C127.999 478.627 128.516 481.228 129.521 483.655C130.526 486.081 131.999 488.287 133.856 490.144C135.713 492.001 137.919 493.474 140.345 494.479C142.772 495.484 145.373 496.001 148 496H200V400H232V496H392V400H424V496H476C478.627 496.001 481.228 495.484 483.655 494.479C486.081 493.474 488.287 492.001 490.144 490.144C492.001 488.287 493.474 486.081 494.479 483.655C495.484 481.228 496.001 478.627 496 476V260C496.001 257.373 495.484 254.772 494.479 252.345C493.474 249.919 492.001 247.713 490.144 245.856C488.287 243.999 486.081 242.526 483.655 241.521C481.228 240.516 478.627 239.999 476 240V240Z" fill="#57A4FF"/>
<path d="M384 200V188C384.001 185.373 383.484 182.772 382.479 180.345C381.474 177.919 380.001 175.713 378.144 173.856C376.287 171.999 374.081 170.526 371.655 169.521C369.228 168.516 366.627 167.999 364 168H260C257.373 167.999 254.772 168.516 252.345 169.521C249.919 170.526 247.713 171.999 245.856 173.856C243.999 175.713 242.526 177.919 241.521 180.345C240.516 182.772 239.999 185.373 240 188V200H384Z" fill="#57A4FF"/>
<path d="M104 184H72C69.8783 184 67.8434 184.843 66.3431 186.343C64.8429 187.843 64 189.878 64 192V400C64 402.122 64.8429 404.157 66.3431 405.657C67.8434 407.157 69.8783 408 72 408H104C106.122 408 108.157 407.157 109.657 405.657C111.157 404.157 112 402.122 112 400V192C112 189.878 111.157 187.843 109.657 186.343C108.157 184.843 106.122 184 104 184ZM96 392H80V200H96V392Z" fill="#004FAC"/>
<path d="M48 168C52.4183 168 56 164.418 56 160C56 155.582 52.4183 152 48 152C43.5817 152 40 155.582 40 160C40 164.418 43.5817 168 48 168Z" fill="#004FAC"/>
<path d="M48 440C52.4183 440 56 436.418 56 432C56 427.582 52.4183 424 48 424C43.5817 424 40 427.582 40 432C40 436.418 43.5817 440 48 440Z" fill="#004FAC"/>
<path d="M476 232H392V188C391.992 180.576 389.039 173.459 383.79 168.21C378.541 162.961 371.424 160.008 364 160H327.32C325.417 148.823 319.624 138.678 310.965 131.358C302.306 124.039 291.338 120.016 280 120H232V56H240C242.122 56 244.157 55.1571 245.657 53.6569C247.157 52.1566 248 50.1217 248 48V16C248 13.8783 247.157 11.8434 245.657 10.3431C244.157 8.84285 242.122 8 240 8H96C93.8783 8 91.8434 8.84285 90.3431 10.3431C88.8429 11.8434 88 13.8783 88 16V48C88 50.1217 88.8429 52.1566 90.3431 53.6569C91.8434 55.1571 93.8783 56 96 56H104V120H56C43.2738 120.014 31.0726 125.075 22.0738 134.074C13.075 143.073 8.0135 155.274 8 168V424C8.01354 433.922 11.0962 443.598 16.8253 451.699C22.5544 459.8 30.6493 465.931 40 469.25V496C40 498.122 40.8429 500.157 42.3431 501.657C43.8434 503.157 45.8783 504 48 504H80C82.1217 504 84.1566 503.157 85.6569 501.657C87.1571 500.157 88 498.122 88 496V472H120V476C120.008 483.424 122.961 490.541 128.21 495.79C133.459 501.039 140.576 503.992 148 504H476C483.424 503.992 490.541 501.039 495.79 495.79C501.039 490.541 503.992 483.424 504 476V260C503.992 252.576 501.039 245.459 495.79 240.21C490.541 234.961 483.424 232.008 476 232V232ZM400 248H416V328H400V248ZM364 176C367.182 176.003 370.232 177.268 372.482 179.518C374.732 181.768 375.997 184.818 376 188V192H248V188C248.003 184.818 249.268 181.768 251.518 179.518C253.768 177.268 256.818 176.003 260 176H364ZM376 208V232H368V208H376ZM352 208V232H328V208H352ZM312 208V232H272V208H312ZM256 208V232H248V208H256ZM104 24H232V40H104V24ZM216 56V120H208V56H216ZM192 56V120H144V56H192ZM128 56V120H120V56H128ZM72 488H56V472H72V488ZM120 260V456H56C47.516 455.99 39.3822 452.616 33.3831 446.617C27.384 440.618 24.0095 432.484 24 424V168C24.0095 159.516 27.384 151.382 33.3831 145.383C39.3822 139.384 47.516 136.01 56 136H280C287.093 136.009 293.982 138.369 299.59 142.712C305.198 147.055 309.207 153.135 310.99 160H260C252.576 160.008 245.459 162.961 240.21 168.21C234.961 173.459 232.008 180.576 232 188V232H192V192C192 189.878 191.157 187.843 189.657 186.343C188.157 184.843 186.122 184 184 184H152C149.878 184 147.843 184.843 146.343 186.343C144.843 187.843 144 189.878 144 192V232.29C137.34 233.26 131.252 236.593 126.845 241.681C122.439 246.768 120.01 253.27 120 260V260ZM224 248V328H208V248H224ZM176 200V232H160V200H176ZM192 488H148C144.818 487.997 141.768 486.732 139.518 484.482C137.268 482.232 136.003 479.182 136 476V260C136.003 256.818 137.268 253.768 139.518 251.518C141.768 249.268 144.818 248.003 148 248H192V328H184C181.878 328 179.843 328.843 178.343 330.343C176.843 331.843 176 333.878 176 336V400C176 402.122 176.843 404.157 178.343 405.657C179.843 407.157 181.878 408 184 408H192V488ZM224 488H208V408H224V488ZM192 392V344H240V392H192ZM384 488H240V408H248C250.122 408 252.157 407.157 253.657 405.657C255.157 404.157 256 402.122 256 400V336C256 333.878 255.157 331.843 253.657 330.343C252.157 328.843 250.122 328 248 328H240V248H384V328H376C373.878 328 371.843 328.843 370.343 330.343C368.843 331.843 368 333.878 368 336V400C368 402.122 368.843 404.157 370.343 405.657C371.843 407.157 373.878 408 376 408H384V488ZM416 488H400V408H416V488ZM384 392V344H432V392H384ZM488 476C487.997 479.182 486.732 482.232 484.482 484.482C482.232 486.732 479.182 487.997 476 488H432V408H440C442.122 408 444.157 407.157 445.657 405.657C447.157 404.157 448 402.122 448 400V336C448 333.878 447.157 331.843 445.657 330.343C444.157 328.843 442.122 328 440 328H432V248H476C479.182 248.003 482.232 249.268 484.482 251.518C486.732 253.768 487.997 256.818 488 260V476Z" fill="#004FAC"/>
</svg>
